<svg xmlns="http://www.w3.org/2000/svg" viewBox="0 0 512 512" style="enable-background:new 0 0 512 512" xml:space="preserve"><style>.st7{fill:#b9bdc2}.st8{fill:#57646e}</style><circle cx="256.4" cy="255.9" style="fill:#87b7dd" r="256" id="ICON"/><g id="Layer_8"><path transform="rotate(-45.001 252.59 243.619)" class="st8" d="M199.3 234.5h106.6v18.3H199.3z"/><path class="st8" d="M160.3 272h43v18.3h-43z"/><circle class="st7" cx="208.5" cy="281.3" r="17"/><circle class="st8" cx="208.5" cy="281.3" r="10.5"/><path class="st7" d="M169.6 305c0 3.3-2.7 6-6 6h-17.9c-3.3 0-6-2.7-6-6v-47.7c0-3.3 2.7-6 6-6h17.9c3.3 0 6 2.7 6 6V305z"/><path class="st8" d="M159.6 315.2c0 4.7-3.8 8.5-8.5 8.5h-25.6c-4.7 0-8.5-3.8-8.5-8.5V247c0-4.7 3.8-8.5 8.5-8.5h25.6c4.7 0 8.5 3.8 8.5 8.5v68.2z"/><path style="fill:#fff" d="M104.2 165.5h36.9V415h-36.9z"/><g><path class="st7" d="m255.3 186.5-2.6 9.3c-3.3 11.9 3.7 24.2 15.5 27.5l15.6 4.3c11.9 3.3 24.2-3.7 27.5-15.5l2.6-9.3-58.6-16.3z"/><path transform="rotate(-74.485 377.571 196.894)" class="st7" d="M366.9 188.4h21.3v17h-21.3z"/><path class="st8" d="M372.2 210.9c-.6 2.3-3 3.6-5.2 3l-9.6-2.7c-2.3-.6-3.6-3-3-5.2l8-28.7c.6-2.3 3-3.6 5.2-3l9.6 2.7c2.3.6 3.6 3 3 5.2l-8 28.7z"/><path class="st7" d="M215.2 162.9c-.6 2.2-2.9 3.5-5.2 2.9l-15.2-4.2c-2.2-.6-3.6-2.9-2.9-5.2l5.3-19.3c.6-2.2 2.9-3.6 5.2-2.9l15.2 4.2c2.2.6 3.6 2.9 2.9 5.2l-5.3 19.3z"/><path d="m212.2 118.6-13.7 49.3c-1.9 6.8 2.1 13.8 8.9 15.7l135.5 37.6c6.8 1.9 13.8-2.1 15.7-8.9l13.7-49.3-160.1-44.4z" style="fill:#1f3049"/><path d="M210.1 99.5c-3-.8-6.2.9-7 4l-9.7 34.9s95.8 26.6 117.7 32.7c21.9 6.1 91.9-18 91.9-18L210.1 99.5z" style="fill:#ca6a46"/></g></g></svg>